<?xml version="1.0" encoding="UTF-8"?>
<svg xmlns="http://www.w3.org/2000/svg" xmlns:xlink="http://www.w3.org/1999/xlink" viewBox="0 0 45.63 33.71">
  <defs>
    <style>
      .cls-1 {
        fill: #648b1d;
      }

      .cls-2 {
        fill: url(#radial-gradient-3);
      }

      .cls-3 {
        fill: #92ad1c;
      }

      .cls-4 {
        fill: url(#radial-gradient);
      }

      .cls-4, .cls-5, .cls-6, .cls-7 {
        mix-blend-mode: multiply;
      }

      .cls-5 {
        opacity: .6;
      }

      .cls-8 {
        fill: #49630d;
      }

      .cls-9 {
        fill: #dee47b;
        opacity: .5;
      }

      .cls-10 {
        fill: #eff778;
      }

      .cls-11 {
        isolation: isolate;
      }

      .cls-12 {
        fill: #87a01b;
      }

      .cls-13 {
        fill: #c1ee5b;
      }

      .cls-14 {
        fill: #506d0f;
      }

      .cls-15 {
        fill: #daf936;
      }

      .cls-16 {
        fill: #d9f777;
      }

      .cls-17 {
        fill: #add42b;
      }

      .cls-7 {
        fill: url(#radial-gradient-2);
      }

      .cls-18 {
        fill: #84a728;
      }

      .cls-19 {
        fill: #79a242;
      }

      .cls-20 {
        fill: #1a1a1a;
      }

      .cls-21 {
        fill: #97b82b;
      }
    </style>
    <radialGradient id="radial-gradient" cx="2130.6" cy="-1225.46" fx="2130.6" fy="-1225.46" r="14.56" gradientTransform="translate(-1476.42 1975.01) rotate(-22.48)" gradientUnits="userSpaceOnUse">
      <stop offset=".42" stop-color="#fff"/>
      <stop offset=".76" stop-color="#afb2a5"/>
      <stop offset="1" stop-color="#49630d"/>
    </radialGradient>
    <radialGradient id="radial-gradient-2" cx="2132.49" cy="-1226.99" fx="2132.49" fy="-1226.99" r="13.66" xlink:href="#radial-gradient"/>
    <radialGradient id="radial-gradient-3" cx="2124.06" cy="-1246.33" fx="2124.06" fy="-1246.33" r="15.7" gradientTransform="translate(-1476.42 1975.01) rotate(-22.48)" gradientUnits="userSpaceOnUse">
      <stop offset="0" stop-color="#fff"/>
      <stop offset=".76" stop-color="#b8bcac"/>
      <stop offset="1" stop-color="#608018"/>
    </radialGradient>
  </defs>
  <g class="cls-11">
    <g id="Layer_2" data-name="Layer 2">
      <g id="Layer_1-2" data-name="Layer 1">
        <g>
          <path d="M33.08,6.87c-2.03,2.17-4.03,4.38-6.12,6.49-.75.76-1.39,1.62-2.08,2.44-.74.88-1.61,1.6-2.31,2.52-1.41,1.84-3.09,3.47-4.58,5.25-1.49,1.78-2.96,3.56-4.16,5.55-.31.51-.62,1.01-.92,1.51.26.07.49.17.7.31.38-.62.78-1.23,1.16-1.84,1.28-2.06,2.89-3.91,4.46-5.75.72-.85,1.47-1.68,2.23-2.5.81-.88,1.52-1.81,2.28-2.73.67-.81,1.49-1.47,2.15-2.29.74-.92,1.53-1.77,2.35-2.62,1.64-1.69,3.22-3.43,4.83-5.15.19-.2.39-.41.58-.61-.23-.16-.41-.35-.56-.57Z"/>
          <g>
            <path d="M34.58,33.65c-.25-.09-.48-.2-.71-.33-.23-.14-.42-.29-.59-.49.06.11.14.21.14.33,0,.06-.06.09-.11.09-.17-.01-.33-.15-.46-.25-.22-.17-.43-.31-.62-.52-.03-.03-.05-.06-.07-.09,0,.01.01.02.02.04.04.07-.06.14-.12.13-.46-.09-.89-.57-1.18-.91-.16-.19-.25-.43-.3-.67-.02-.09-.03-.19-.03-.28.01.21-.02.36.04.58.01.04-.02.07-.06.08-.15.02-.26-.11-.36-.2-.2-.17-.35-.37-.46-.6-.11-.23-.17-.51-.22-.76,0-.03-.01-.07-.02-.1-.05.11-.11.2-.2.27-.03.02-.07.02-.1,0,0,0,0,0-.01-.02-.09.23-.2.46-.35.66-.22.3-.49.6-.75.88-.08.08-.23.31-.37.25-.04-.02-.03-.09-.03-.12-.12.23-.27.44-.4.65-.11.18-.28.38-.48.5,0,.06-.02.13-.08.17-.04.03-.09.03-.13,0-.36-.23-.69-.48-.98-.8-.2-.21-.32-.48-.44-.74-.12-.26-.14-.49-.17-.75-.05.09-.09.19-.14.28-.06.13-.04.36-.14.46-.13.14-.24-.09-.28-.18-.23-.63-.13-1.32.1-1.93-.02.04-.06.06-.11.06-.37-.04-.3-1.12-.27-1.34.05-.35.13-.7.26-1.02.07-.18.16-.36.26-.54.03-.06.07-.11.11-.17-.1.04-.2.04-.24-.08-.1-.26.25-.73.37-.93.25-.46.62-.83,1-1.18.16-.15.32-.3.51-.42.08-.05.22-.11.33-.18-.14,0-.28.05-.39-.03-.02-.02-.03-.04-.03-.07.03-.13.16-.22.26-.3.25-.21.53-.38.81-.53.27-.14.56-.26.84-.39.15-.07.32-.13.45-.24.01-.01.03-.03.04-.04h0c.07-.06.13-.15.12-.25,0-.08-.07-.12-.14-.15-.2-.25-.87-.42-1.01-.45-.19-.04-.48-.06-.64-.17-.08-.06-.14-.17-.02-.24.1-.05.21-.08.32-.13.13-.06.11-.04,0-.12-.05-.04-.11-.08-.15-.13-.41-.47-.71-1.16-.8-1.78-.03-.18-.03-.37.12-.5.12-.1.32-.02.48.07-.07-.19-.08-.4-.09-.62-.03-.45.05-.89.19-1.31.13-.39.34-.76.56-1.1.15-.24.38-.61.64-.74.03-.01.06,0,.08.02.08.08.05.22.05.35.13-.17.21-.38.34-.54.22-.27.49-.5.77-.72.25-.19.53-.38.81-.53.14-.08.28-.14.43-.2.09-.04.26-.06.32-.1.05-.04.19-.03.18.06-.03.41.06.77.17,1.16.01-.09.05-.18.12-.23.14-.1.23.05.29.16.2.34.37.65.48,1.03.05.16.07.31.09.46-.01-.09.02-.17.07-.26.01-.02.04-.03.06-.01.16.12.19.48.19.71.12-.26.27-.51.42-.74.05-.08.79-1.09.93-.64.03.09.03.14,0,.23-.03.1-.02.1.03,0,.06-.08.13-.15.2-.22.22-.22.49-.41.76-.55.46-.25,1.16-.51,1.69-.34.04.01.06.05.07.09.01.09-.05.15-.13.21.16-.06.31-.13.47-.17.29-.08.59-.08.89-.06.36.02.71.09,1.07.14.09.01.19.02.29.04.11,0,.21,0,.28.05.2.13-.12.54-.18.66-.17.32-.35.63-.57.92.13-.06.3-.11.4-.04.32.22-.65,1.29-.78,1.44-.03.03-.06.07-.09.11.01,0,.03-.02.04-.03.12-.08.22.03.21.15,0,.28-.3.59-.45.8-.02.03-.05.06-.07.09.32-.1.68-.12.96-.13.43-.01.87.11,1.27.26.11.04.54.27.25.4-.08.03-.16.05-.24.06-.35.06,0,.02.09.02.31.02.63.15.92.25.31.11.61.28.89.45.13.08.37.25.4.41.03.16-.07.24-.2.3-.2.09-.48.05-.1.14.63.16,1.13.6,1.6,1.01.13.11.75.68.55.87-.01.01-.02.02-.04.02.39.32.68.74.95,1.16.02.02.04.03.06.05.03,0,.05.03.05.06,0,0,0,0,0,0,0,0,0,0,0,0,.02.03,0,.06-.02.08-.06.15-.28.26-.39.34-.29.21-.59.42-.91.58-.32.16-.66.32-1,.43-.15.05-.3.08-.45.1.01,0,.02,0,.03,0,.02,0,.04.02.03.04,0,.29-.65.55-.86.68-.35.21-.7.38-1.08.49.03,0,.06.02.08.03.06.03.08.1.03.15-.29.31-.8.54-1.21.63-.21.05-.41.05-.62,0,.1.02.26.09.38.12.09.02.15,0,.22.06.03.02.04.06.02.09-.12.19-.35.26-.56.31-.41.1-.81.2-1.23.21-.31,0-.6-.02-.88-.16.04.04.08.07.1.12.13.34-.95.06-1,.05-.19-.04-.38-.13-.55-.23.1.12.18.25.25.38.28.48.34,1.09.22,1.63-.01.06-.09.08-.13.03-.05-.05-.09-.1-.14-.15.03.07.06.15.08.22.11.34.15.71.15,1.06,0,.2.04.55-.11.71-.17.18-.34.02-.4-.15,0-.01-.01-.04-.03-.08.02.09.02.19.02.27,0,.33-.06.63-.12.96-.03.13-.09.39-.25.42-.06.01-.11,0-.15-.03.03.28,0,.58-.06.85-.04.08-.07.17-.11.25-.08.18-.26.13-.42.07Z"/>
            <path class="cls-14" d="M30.47,12.97c-.24.12-.5.3-.72.45-.3.22-.58.46-.84.73-.18.19-.29.45-.48.62-.04.03-.09.04-.12-.01-.04-.08-.03-.18-.05-.27,0-.03,0-.07,0-.09.02-.08-.11.13-.11.12-.28.34-.51.67-.71,1.06-.21.41-.35.82-.43,1.27-.06.37-.12,1,.2,1.25.06.05,0,.12-.06.11-.15,0-.24-.02-.38-.08-.22-.09-.18.1-.17.26.02.34.11.65.25.97.15.34.37.66.67.87.14.1.15.19,0,.29-.05.04-.14.06-.21.07-.02,0-.34.05-.22.15.06.05.19.08.26.09.31.06.62.04.93.11.23.05.52.24.61.44.05-.08.1-.16.14-.24.12-.24.17-.52.2-.79.04-.43.02-.84,0-1.27-.03-.87-.1-1.73-.04-2.6.05-.81.34-1.6.71-2.31.21-.4.46-.75.7-1.13.04-.06.09-.15.16-.24-.1.04-.2.09-.3.14Z"/>
            <path class="cls-1" d="M38.9,13.62c-.26-.03-.5-.08-.76-.11-.28-.03-.56-.03-.84,0-.24.03-.66.13-.86.29-.03.03-.1,0-.09-.04.01-.04.02-.07.04-.1.03-.05.06-.1.1-.15,0,0,0,0,0,0-.36-.03-.73.05-1.07.17-.32.12-.62.27-.9.47-.16.11-.29.25-.41.41-.04.06-.04.06-.1.09-.02,0-.06,0-.07-.02-.06-.1,0-.4-.2-.21-.24.22-.42.52-.6.78-.15.22-.29.45-.42.68-.04.34-.18.64-.36.94-.01.02-.06.02-.05-.01.13-.42.18-.85.2-1.29,0-.17,0-.37-.02-.53,0,0-.04.17-.08.24-.01.02-.05.03-.07,0-.06-.07-.08-.19-.1-.28-.08-.24-.17-.48-.27-.71-.09-.2-.21-.4-.34-.58-.03.06-.06.11-.1.16-.04.07-.05.16-.09.23,0,.01-.03.01-.03,0,0-.06,0-.13,0-.2,0,0-.01,0-.02-.01-.2-.33-.35-.72-.37-1.1-.06.01-.11.03-.17.06-.05.08-.09.16-.12.22-.1.18-.21.36-.33.53-.23.36-.42.75-.6,1.13-.39.83-.47,1.82-.45,2.73.02.79.14,1.61.1,2.4-.03.54-.02,1.41-.52,1.77.22-.06.44-.12.67-.17.31-.18.64-.37.93-.55.49-.31.95-.67,1.41-1.03.97-.77,1.92-1.59,2.74-2.51.79-.89,1.52-1.8,2.39-2.61.44-.41,1.19-1.01,1.9-1.07-.03,0-.06,0-.08,0Z"/>
            <path class="cls-19" d="M44.27,21.7s.01-.09.05-.07c.02,0,.18.08.14.03-.06-.09-.14-.17-.21-.25-.19-.21-.42-.38-.62-.58-.21-.2-.42-.37-.64-.55-.22-.16-.56-.42-.84-.43-.02,0-.01-.02,0-.03.26-.1.41-.25.17-.47-.17-.15-.37-.26-.57-.37-.44-.26-1.02-.56-1.54-.62-.03,0-.03-.04,0-.05.05-.02.35-.15.34-.17-.04-.06-.15-.09-.21-.12-.14-.06-.28-.11-.42-.15-.29-.09-.59-.13-.89-.14-.25-.01-.6,0-.9.07,0,0-.02.02-.02.02-.11.02-.22.04-.33.06.09-.1.17-.2.26-.29.11-.13.2-.28.3-.42.04-.06.08-.12.12-.19.02-.04.04-.08.06-.12.06-.13-.02-.11-.22.04-.03.03-.08,0-.05-.04.31-.36.55-.79.78-1.21.05-.1.1-.2.14-.3.04-.12-.07-.04-.14-.02-.24.08-.57.19-.75.37,0,0-.01,0,0,0,.11-.2.38-.36.57-.47.11-.2.21-.41.3-.63.12-.27.28-.54.39-.81,0,0,0-.01,0-.02,0,0-.01,0-.02,0-1.15-.07-2.05.8-2.78,1.57-.76.81-1.42,1.71-2.2,2.5-.78.8-1.62,1.52-2.5,2.21-.46.36-.92.7-1.42,1-.11.07-.22.12-.34.18.07-.01.14-.03.21-.04.44-.07.87-.2,1.32-.26.5-.07.99-.14,1.5-.19.22-.02.43-.07.64-.09.22-.02.44-.01.67-.02.47-.02.94-.02,1.41,0,.95.02,1.93.02,2.87.14.48.06.96.13,1.44.21.44.08.87.23,1.31.3.94.16,1.86.61,2.71,1.03.28.14.54.29.82.43.05.02.1.04.15.07-.29-.43-.61-.85-1.04-1.14Z"/>
            <path class="cls-1" d="M34.99,33.17c.05-.32.11-.75,0-1.07-.01-.04.06-.08.08-.04.07.1.2.41.29.14.04-.12.06-.24.08-.36.05-.23.09-.45.11-.68.02-.23-.02-.42-.04-.64,0-.01.02-.03.03-.01.07.11.13.23.22.32.15.15.14.1.16-.06.05-.32.03-.67-.01-.99-.05-.34-.08-.7-.26-1-.03-.06-.06-.1-.07-.13-.03-.03-.05-.06-.08-.08-.02-.03.03-.06.05-.04.05.04.11.09.15.14.05.04.09.08.11.1.09.09.17.21.27.31.01-.51-.08-1.02-.31-1.48-.15-.3-.38-.58-.63-.82-.14-.14-.41-.27-.51-.45,0,0,.01-.01.01,0,.07.1.2.14.3.2.09.06.17.12.26.18-.11-.16-.18-.33-.22-.51,0,0,.01-.01.02,0,.25.48.85.83,1.34,1,.22.07.44.12.66.18.13.03.16.06.06-.07-.08-.1-.13-.21-.21-.3-.01-.02.01-.03.03-.02.46.29.91.29,1.44.26.23-.02.45-.08.67-.13.2-.05.47-.08.66-.2-.1-.06-.27-.09-.35-.13-.07-.03-.14-.08-.19-.13-.01-.01,0-.03,0-.03.06-.03.09-.02.16,0,.21.03.47-.1.66-.17.29-.11.6-.26.86-.44-.15-.05-.33-.07-.46-.12-.05-.02,0-.07.03-.07.1,0,.21,0,.33,0,.47-.17.92-.39,1.35-.63.22-.12.44-.24.65-.38.13-.09-.26-.06-.3-.05-.09.01-.18.01-.27,0-.07,0-.06-.09,0-.11.25-.1.52-.13.78-.21.34-.1.67-.24.99-.39.3-.14.57-.3.84-.48.1-.07.6-.33.62-.5-.13-.08-.32-.16-.4-.2-.2-.1-.39-.21-.59-.31-.49-.24-1-.46-1.51-.64-.87-.31-1.81-.52-2.71-.68-1.9-.34-3.86-.35-5.79-.31-.47.01-.92.09-1.38.14-.5.05-1,.11-1.49.21-.75.14-1.5.27-2.24.46,1.03.23,1.84.86,2.43,1.76.64.98,1.08,2.1,1.3,3.25.11.59.24,1.18.3,1.78.06.61.08,1.21.22,1.81.14.56.25,1.15.45,1.69.01.03.03.07.04.1.06.14.13.28.2.42.11.22.26.43.41.62.11.14.21.3.33.44.05-.15.08-.35.09-.41Z"/>
            <path class="cls-21" d="M28.99,22c-.02-.06-.05-.14-.09-.2.09-.02.17-.05.26-.07.06.03.13.06.14.07.17.08.33.17.5.26.26.13.5.31.71.5.49.44.88.96,1.19,1.55.29.55.62,1.12.78,1.73.16.56.26,1.13.37,1.7.11.59.18,1.17.23,1.77.05.56.18,1.08.31,1.62.13.54.35,1.06.61,1.56.05.13.11.26.17.39.08.16.17.37.29.55-.13-.06-.24-.14-.37-.2-.35-.18-.66-.37-.92-.66-.03-.03-.08,0-.08.03-.01.17.08.32.13.48-.09-.05-.18-.13-.26-.18-.13-.08-.25-.17-.37-.26-.28-.22-.56-.48-.62-.85,0-.02-.04-.02-.04,0,0,.18.02.35.03.52-.11-.07-.21-.16-.3-.23-.19-.15-.37-.31-.53-.49-.26-.29-.46-.6-.54-.99,0-.02-.05-.01-.05,0-.05.21-.06.39-.08.6-.15-.11-.32-.38-.39-.49-.15-.22-.24-.46-.33-.71-.08-.23-.12-.46-.16-.7.02-.09.03-.18.05-.25.06-.29.1-.56.11-.84.43-2.19.59-4.56-.75-6.2Z"/>
            <path class="cls-1" d="M26.5,31.81c-.04-.26-.07-.51-.07-.77.01-.56.16-1.1.28-1.64.25-1.11.76-2.16,1.24-3.18.41-.89,1.05-1.7,1.13-2.71.04-.49.04-.97-.08-1.45,0-.02,0-.03-.01-.05,1.33,1.64,1.18,4.01.75,6.2,0-.15.01-.31,0-.47,0-.04-.07-.03-.07.01-.03.36-.06.72-.13,1.07-.01.08-.03.19-.05.31,0,0,0,0,0,0,0,0,0,0,0,0,0,0,0,0,.01.02-.04.25-.1.54-.23.67-.02-.1.02-.21.04-.3.03-.13-.17-.14-.22-.04-.11.25-.18.54-.31.78-.14.25-.32.47-.48.72-.14.22-.28.45-.46.63-.12.12-.04-.28-.04-.25.01-.06.02-.14.03-.21,0-.03.01-.06.01-.09.02-.1-.13-.11-.17-.04-.17.32-.32.64-.51.96-.12.2-.25.48-.42.69,0-.02-.02-.04-.03-.06-.02-.02-.04-.02-.06,0-.1-.25-.12-.51-.15-.78Z"/>
            <path class="cls-19" d="M26.61,32.7s-.01,0-.01-.01c-.2-.32-.19-.73-.24-1.09-.07-.47-.07-.93-.02-1.4.11-1,.46-1.95.86-2.87.21-.47.42-.94.64-1.4.22-.48.51-.92.73-1.4.23-.49.3-.99.32-1.53,0-.1.02-.91-.09-1.17,0,0-.01,0-.02,0-.02.08-.08.16-.16.22-.33.22-.73.35-1.09.53-.19.09-.37.19-.54.31-.09.06-.17.13-.26.19.07-.05-.3.23-.24.21.11-.02.46-.1.55.03.04.06,0,.13-.06.15-.26.1-.49.16-.71.34-.35.26-.69.61-.94.98-.2.3-.35.67-.46,1.02-.01.04-.03.07-.04.11.07-.04.15-.07.24-.08.11-.02.18.09.1.18-.03.03-.05.06-.09.07-.2.08-.29.29-.39.46-.18.3-.28.64-.36.98-.07.29-.07.59-.05.89,0,.07.08.7.17.71.03,0,.05.01.07.03.06-.07.11-.19.13-.22.04-.07.16-.06.15.03-.06.29-.21.55-.27.84-.06.31-.03.65,0,.96,0,.12.05.23.08.34,0,0,0,.02,0,.03,0,0,0,0,0,0,.09-.22.21-.46.35-.66.02-.03.08-.04.08,0,.06.55.35,1.11.72,1.52.19.21.41.38.63.56.07.06.15.09.22.14,0,0,0,0,0,0Z"/>
            <g class="cls-5">
              <path class="cls-8" d="M24.69,31.38c.1-.11.08-.33.14-.46.04-.09.09-.19.14-.28.03.26.05.49.17.75.12.26.24.53.44.74.3.32.63.57.98.8.04.02.09.02.13,0,.06-.05.08-.11.08-.17.2-.12.37-.32.48-.5.13-.21.28-.42.4-.65,0,.04,0,.1.03.12.14.06.29-.17.37-.25.26-.27.53-.57.75-.88.15-.2.25-.43.35-.66,0,0,0,.01.01.02.02.03.07.03.1,0,.09-.07.15-.16.2-.27,0,.03,0,.07.02.1.05.25.11.53.22.76.11.23.26.44.46.6.1.09.21.23.36.2.04,0,.07-.04.06-.08-.06-.21-.02-.37-.04-.58,0,.09.01.19.03.28.05.24.14.48.3.67.29.34.72.82,1.18.91.06.01.16-.06.12-.13,0-.01-.01-.02-.02-.04.02.03.05.06.07.09.19.21.39.35.62.52.13.1.29.24.46.25.05,0,.11-.03.11-.09,0-.12-.08-.23-.14-.33.16.19.36.34.59.49.23.13.46.24.71.33.16.06.33.11.42-.07.04-.08.07-.17.11-.25.06-.27.09-.57.06-.85.04.03.08.04.15.03.16-.03.22-.29.25-.42.06-.32.12-.63.12-.96,0-.09,0-.18-.02-.27.01.03.02.06.03.08.07.17.23.33.4.15.15-.16.11-.51.11-.71,0-.35-.04-.72-.15-1.06-.02-.07-.05-.14-.08-.22.05.05.09.1.14.15.04.04.12.02.13-.03.13-.54.06-1.15-.22-1.63-.08-.13-.16-.26-.25-.38.17.11.37.19.55.23.05.01,1.12.3,1-.05-.02-.05-.06-.08-.1-.12.27.15.57.17.88.16.42,0,.82-.1,1.23-.21.21-.05.44-.12.56-.31.02-.03.01-.07-.02-.09-.07-.05-.13-.04-.22-.06-.12-.02-.28-.09-.38-.12.21.05.42.05.62,0,.41-.1.92-.32,1.21-.63.05-.05.03-.12-.03-.15-.02-.01-.05-.02-.08-.03.38-.11.73-.28,1.08-.49.21-.13.86-.39.86-.68,0-.02-.02-.04-.03-.04-.01,0-.02,0-.03,0,.15-.02.3-.05.45-.1.34-.11.68-.27,1-.43.32-.16.62-.37.91-.58.11-.08.34-.19.39-.34.02-.02.03-.05.02-.08-.45.38-.96.68-1.55.92-.98.38-2.12.33-3.06.77.12.03.24.04.37.03.17,0,.22.26.07.32-.66.26-1.39.32-2.04.58.09.04.18.06.28.08.17.04.15.3-.02.33-.29.05-.58.08-.87.11.11.06.12.25,0,.3-1.1.46-2.41-.2-3.34-.79-.68-.43-1.2-1.07-1.76-1.64-.73-.75-1.6-1.31-2.4-1.97-.11-.09-.1-.22.01-.3.81-.54,2.1-.41,3.02-.44,1.12-.03,2.24-.02,3.36.05,2.26.13,4.51.44,6.69,1.03-.69-.19-1.42-.8-2.1-1.08-.75-.32-1.52-.56-2.31-.76-1.57-.41-3.75-.48-5.37-.3-.22.02-2.85.53-2.58.16.74-1.02,2.89-1.57,4.04-1.81,1.52-.31,2.44-1.13,4.59-.73-.08-.06-.17-.1-.21-.12-.4-.15-.84-.27-1.27-.26-.29,0-.65.03-.96.13.03-.03.05-.06.07-.09.15-.21.44-.52.45-.8,0-.11-.1-.23-.21-.15-.01,0-.03.02-.04.03.03-.04.06-.07.09-.11.12-.14.95-1.05.83-1.37-.3.25-.58.53-.83.85-.35.45-.54.97-.95,1.39-.74.77-2.66,1.17-3.64,1.49-.5.17,1.03-1.38,1.08-1.43.48-.58,1.19-1.11,1.6-1.74.58-.87,1.29-1.48,2.14-1.95-1.71.35-2.91,1.74-4.21,2.98-1.31,1.25-2.42,2.84-4.2,3.43-.18.06-.26-.18-.15-.29.68-.74,1.36-1.36,1.89-2.24.52-.86.86-1.78,1.24-2.7.14-.35.32-.63.51-.88-.27.11-.68.68-.72.74-.15.24-.3.48-.42.74,0-.23-.03-.59-.19-.71-.02-.02-.05,0-.06.01-.05.09-.08.16-.07.26-.02-.16-.04-.31-.09-.46-.11-.38-.28-.69-.48-1.03-.05-.08-.1-.18-.19-.19.42,1.1.61,2.29.33,3.45-.15.61-.87,1.82-1.51,2.36-.9.75-.8.43-.81-.44,0-.81-.16-2.15-.14-2.48.05-.77.46-1.84.71-2.63-.07.07-.14.13-.21.2-.6.57-.84,1.39-1.04,2.16-.3,1.09.06,2.08-.01,3.16-.13,1.86-1.58-.34-1.73-1.01-.02-.1.07-.23.18-.21.02,0,.04,0,.07.01-.15-.42-.25-.84-.25-1.3,0-.08.05-.13.11-.15.04-.44.18-.88.4-1.28.06-.11.25-.11.3.01.1.24.22.57.39.8.2-.68.42-1.34.74-1.98.27-.54.7-.94,1.15-1.33-.27.15-.55.33-.8.52-.27.22-.55.45-.77.72-.13.16-.22.38-.34.54,0-.13.03-.27-.05-.35-.02-.02-.05-.03-.08-.02-.26.13-.49.49-.64.74-.22.34-.43.71-.56,1.1-.14.42-.22.87-.19,1.31.01.22.02.43.09.62-.17-.08-.36-.17-.48-.07-.15.13-.14.32-.12.5.09.62.39,1.31.8,1.78.04.05.1.09.15.13.1.08.12.06,0,.12-.1.05-.21.07-.32.13-.12.06-.06.18.02.24.16.11.45.13.64.17.14.03.81.21,1.01.45.07.03.14.07.14.15.01.1-.04.19-.12.25-.01.01-.02.02-.04.04-.13.11-.29.17-.45.24-.28.13-.56.25-.84.39-.29.15-.56.32-.81.53-.1.08-.23.17-.26.3,0,.03,0,.05.03.07.07.05.15.06.23.05.84-.59,1.86-.8,1.83.51-.02.88-.56,1.72-1,2.45-.9,1.5-1.48,3.69-1.16,5.43.03.17.08.43-.04.31-1.38-1.31-.89-1.77-1.02-2.45-.09.11-.3.57-.32.4,0-.01-.27.33-.28.32-.08-.64.24-2.09.29-2.73-.07.19-.09.4-.11.63-.02.2-.29.21-.34.03-.11-.37-.14-.75-.12-1.14-.07.24-.14.48-.17.73-.03.22-.1,1.3.27,1.34.05,0,.09-.02.11-.06-.23.61-.32,1.3-.1,1.93.03.1.14.32.28.18ZM33.25,27.44c-.18-1.37-.45-2.53-1.17-3.84-.14-.25-.62-.83-.49-.77.75.3,1.83,2.11,2.29,2.74.6.83,1.54,1.47,1.62,2.53,0,.14-.16.19-.26.14-.08-.04-.17-.08-.25-.12.18.52.36,1.02.37,1.6.02.84-.47,1.65-.55,2.48-.01.14-.04.98-.14.85-1.1-1.4-1.2-3.91-1.42-5.6ZM30.2,27.39c.14-1.13-.18-2.32-.34-3.35-.03-.16-.22-.56-.22-.75.02-.4.12-.5.5-.33.88.41,2.09,2.29,2.35,3.53.51,2.44-.14,3.64,1.3,6.03.1.17.02.41-.09.32-.36-.3-.63-.64-.88-1,.02.15.05.3.08.45.04.19-.23.29-.32.11-.25-.47-.42-.98-.64-1.46-.02.08-.05.16-.06.25-.03.13-.21.15-.29.06-.39-.44-.57-.94-.77-1.46,0,.02,0,.04,0,.06,0,.15-.21.21-.3.11-.62-.73-.44-1.69-.34-2.56ZM26.66,31.81c-.23-1.09.08-2.07.49-3.08.55-1.34,1.48-2.47,2.02-3.8.21-.5.45.98.45,1.16-.01.94-.28,2.56-.85,3.3-.06.08-.2.12-.27.02-.02-.03-.04-.06-.07-.09-.08.27-.19.53-.3.8-.05.13-.25.17-.32.03-.04-.08-.07-.16-.1-.24-.12.33-.21.69-.33,1.02-.12.33-.3.56-.4.89-.05.16-.3.15-.33-.02Z"/>
            </g>
            <path class="cls-9" d="M34.89,19.74c3.97-.82,6.6.83,9.21,2.28.02.01.04-.01.02-.03-.21-.2-.42-.41-.63-.62.12.11.24.22.36.33.11.11.25-.06.18-.18-.3-.49-.84-.83-1.29-1.18-.44-.36-.9-.69-1.39-.99-.08-.05-.17-.1-.26-.15.26.11.53.22.79.33.11.05.2-.1.11-.18-.76-.64-1.74-1-2.77-1.12.03,0,.07-.01.1-.02.11-.02.11-.17,0-.19-1.47-.25-5.23,1.41-6.55,1.95-.07.03.83.03,2.1-.24Z"/>
            <path class="cls-18" d="M30.7,19.7c.76-.71,1.47-1.71,1.94-2.64.37-.75.51-1.6,1.05-2.25.04-.05.11,0,.09.05-.06.21-.13.43-.2.64.61-.92,1.42-1.72,2.56-1.76.05,0,.07.05.05.08.43-.1.86-.13,1.29-.06.01,0,.02,0,.03,0,0,0,0,0,.01,0,.07.01.15.02.22.04.05.01.06.09,0,.09-.8.1-1.54.23-2.3.54-.66.27-1.13.69-1.58,1.18-.41.58-.76,1.22-1.11,1.8-.5.82-1.18,1.85-2.02,2.34-.04.02-.08-.03-.05-.06Z"/>
            <path class="cls-9" d="M24.85,27.84c0-.3.06-.55.18-.71-.1.14-.2.28-.31.42-.02.03-.09.01-.08-.03.13-.55.44-1.08.75-1.58.15-.3.33-.58.47-.88-.22.19-.42.4-.64.59-.05.04-.14-.02-.11-.08.03-.05.06-.1.1-.15-.01-.01-.02-.03-.01-.05.35-.83,1.11-1.22,1.83-1.68.14-.16.29-.31.45-.45.02-.02.06.01.04.04-1.54,2.26-2.8,4.61-1.99,7.42,0,.03-.03.05-.05.02-.23-.49-.65-1.93-.62-2.88Z"/>
            <path class="cls-9" d="M41.27,23.72c.19.46.94.34,1.32.27.49-.09,1.11-.21,1.52-.52.11-.09.08-.26-.04-.32-.62-.29-1.32-.19-1.98-.07-.55.05-.99.22-.82.63Z"/>
            <path class="cls-9" d="M39.32,24.75c.18-.18.44-.34.69-.33.19-.04.4-.03.58.04.11.05.12.17.07.26-.25.42-.87.5-1.29.33-.14-.05-.13-.22-.04-.31Z"/>
            <path class="cls-9" d="M38.04,25.09s.05-.03.07-.05h0s.08-.04.13-.03c.04,0,.07.03.09.06.06.07.07.18-.03.23,0,0-.01.01-.03.02h0s-.05.02-.08.03c-.16.05-.3-.16-.15-.26Z"/>
          </g>
          <path class="cls-4" d="M45.57,23.01s-.04-.04-.06-.05c-.27-.42-.57-.84-.95-1.16.01,0,.03-.01.04-.02.19-.19-.42-.76-.55-.87-.47-.42-.97-.86-1.6-1.01-.38-.09-.09-.05.1-.14.14-.06.23-.14.2-.3-.03-.16-.27-.33-.4-.41-.28-.18-.57-.34-.89-.45-.29-.1-.61-.23-.92-.25-.1,0-.44.04-.09-.02.09-.02.16-.03.24-.06.29-.13-.14-.36-.25-.4-.4-.15-.84-.27-1.27-.26-.29,0-.65.03-.96.13.03-.03.05-.06.07-.09.15-.21.44-.52.45-.8,0-.11-.1-.23-.21-.15-.01,0-.03.02-.04.03.03-.04.06-.07.09-.11.13-.15,1.1-1.22.78-1.44-.11-.07-.27-.02-.4.04.22-.28.41-.6.57-.92.07-.12.38-.53.18-.66-.07-.05-.17-.06-.28-.05-.1-.02-.2-.03-.29-.04-.36-.05-.71-.12-1.07-.14-.3-.02-.6-.02-.89.06-.16.05-.31.11-.47.17.08-.06.14-.12.13-.21,0-.04-.03-.07-.07-.09-.53-.17-1.23.08-1.69.34-.27.15-.53.34-.76.55-.07.07-.14.14-.2.22-.04.1-.05.11-.03,0,.03-.09.03-.15,0-.23-.14-.45-.88.56-.93.64-.15.24-.3.48-.42.74,0-.23-.03-.59-.19-.71-.02-.02-.05,0-.06.01-.05.09-.08.16-.07.26-.02-.16-.04-.31-.09-.46-.05-.19-.12-.36-.2-.52-.66.53-1.18,1.25-1.35,2.09-.21.99-.02,1.75.47,2.61.28.5.54,1.09.07,1.56-.37.38-.85.6-1.27.9.7.08,1.16.33,1.34,1.12.31,1.36.79,2.83,2.51,2.26.09-.03.19.03.18.14-.09.77.39,1.23,1.05,1.53.11.05.09.18,0,.24-.7.39-.25,1.38-.07,1.95.13.4.2.77.15,1.2-.1.88-.31,2.32-1.3,2.63-.92.29-2.05-.32-2.78-.82-.15-.11-.31-.22-.47-.34.05.16.13.31.23.43.29.34.72.82,1.18.91.06.01.16-.06.12-.13,0-.01-.01-.02-.02-.04.02.03.05.06.07.09.19.21.39.35.62.52.13.1.29.24.46.25.05,0,.11-.03.11-.09,0-.12-.08-.23-.14-.33.16.19.36.34.59.49.23.13.46.24.71.33.16.06.33.11.42-.07.04-.08.07-.17.11-.25.06-.27.09-.57.06-.85.04.03.08.04.15.03.16-.03.22-.29.25-.42.06-.32.12-.63.12-.96,0-.09,0-.18-.02-.27.01.03.02.06.03.08.07.17.23.33.4.15.15-.16.11-.51.11-.71,0-.35-.04-.72-.15-1.06-.02-.07-.05-.14-.08-.22.05.05.09.1.14.15.04.04.12.02.13-.03.13-.54.06-1.15-.22-1.63-.08-.13-.16-.26-.25-.38.17.11.37.19.55.23.05.01,1.12.3,1-.05-.02-.05-.06-.08-.1-.12.27.15.57.17.88.16.42,0,.82-.1,1.23-.21.21-.05.44-.12.56-.31.02-.03.01-.07-.02-.09-.07-.05-.13-.04-.22-.06-.12-.02-.28-.09-.38-.12.21.05.42.05.62,0,.41-.1.92-.32,1.21-.63.05-.05.03-.12-.03-.15-.02-.01-.05-.02-.08-.03.38-.11.73-.28,1.08-.49.21-.13.86-.39.86-.68,0-.02-.02-.04-.03-.04-.01,0-.02,0-.03,0,.15-.02.3-.05.45-.1.34-.11.68-.27,1-.43.32-.16.62-.37.91-.58.11-.08.34-.19.39-.34.02-.02.03-.05.02-.08,0,0,0,0,0,0,0,0,0,0,0,0,0-.03-.02-.05-.05-.06Z"/>
          <path class="cls-7" d="M29.54,30.1c.04.16.08.32.15.46.11.23.26.44.46.6.1.09.21.23.36.2.04,0,.07-.04.06-.08-.01-.05-.02-.09-.03-.13-.38-.3-.75-.65-1.01-1.05Z"/>
          <path d="M25.88,15.11c-.86.35-1.72.66-2.66.78-.52.07-1.06.05-1.58-.03-.16-.02-.34-.03-.5-.05.13.01-.7-.2-.68-.21.01,0,0-.03,0-.02,0,0-.02,0-.03,0-.01,0-.02.03,0,.03.68.53,1.71.62,2.55.62,1.05,0,2.11-.33,2.96-.96.06-.04.05-.2-.05-.16Z"/>
          <path d="M28.69,21.6c-2.29-.13-4.48-2.78-3.97-5.06,0-.01-.01-.03-.02,0-.48,1.12,0,2.58.63,3.54.64.95,2.19,1.95,3.37,1.67.07-.02.07-.13,0-.14Z"/>
          <path d="M29.5,4.88c-.41-.09-.84-.01-1.23.18-.41-.88-1.17-1.61-1.96-2.15-.48-.33-1.01-.61-1.49-.94-.65-.44-.99-1.2-1.19-1.93-.02-.07-.11-.03-.1.03.22,1.25.85,1.92,1.91,2.57,1.06.64,2.08,1.42,2.63,2.52-.75.46-1.27,1.34-1,2.2.2.63.94.42,1.24.04.49-.6.31-1.45.04-2.12.46-.19.99-.22,1.44-.09,1.53.45,1.98,3,1.91,4.32,0,.02.03.02.03,0,.13-1.6-.38-4.23-2.25-4.63ZM28.39,5.98c.04.19.06.39.05.58,0,.66-.4.88-1.17.67-.19-.35.05-.9.22-1.21.16-.29.41-.51.69-.66.08.19.15.39.2.61Z"/>
          <g>
            <path class="cls-20" d="M8.78,27.67c.33,0,.66-.04.98-.09.34-.07.63-.17.91-.33-.12.1-.26.19-.31.34-.02.07.03.13.09.15.21.06.46-.05.66-.11.34-.11.64-.19.95-.36.04-.02.08-.05.13-.08-.01.01-.03.03-.04.04-.07.07.02.2.1.21.59.08,1.3-.31,1.79-.59.27-.16.47-.41.63-.67.06-.1.11-.21.16-.33-.1.25-.13.45-.29.67-.03.04,0,.1.04.12.16.09.35-.03.51-.09.31-.11.57-.3.8-.53.23-.23.42-.54.58-.82.02-.04.04-.07.06-.11.01.15.05.29.12.4.02.04.08.05.12.03,0,0,.01,0,.02-.01.01.32.05.63.14.93.14.46.33.92.53,1.36.06.13.14.47.33.46.06,0,.08-.09.09-.13.04.32.13.64.2.95.06.26.18.58.37.8-.03.07-.03.16.02.24.03.05.1.07.15.06.52-.12,1.02-.29,1.51-.55.33-.17.58-.45.84-.7.26-.26.38-.52.52-.82.02.13.03.26.05.39.02.18-.1.44-.02.61.1.22.32,0,.41-.1.53-.65.71-1.51.69-2.34,0,.05.04.1.11.12.46.11.82-1.21.88-1.48.09-.43.14-.88.11-1.33-.01-.25-.04-.5-.08-.74-.01-.08-.03-.17-.06-.25.11.09.22.13.32.01.23-.27,0-.97-.05-1.27-.11-.65-.39-1.25-.7-1.83-.13-.25-.26-.49-.43-.72-.07-.09-.22-.22-.33-.35.16.07.31.18.48.12.03-.01.06-.04.06-.07.03-.17-.1-.33-.18-.47-.21-.35-.47-.68-.75-.97-.27-.28-.55-.55-.84-.81-.16-.15-.33-.29-.43-.48-.01-.02-.02-.04-.03-.06h0c-.06-.11-.09-.23-.03-.35.04-.09.14-.12.24-.12.34-.21,1.21-.14,1.39-.12.25.03.59.13.84.07.12-.04.24-.15.12-.28-.1-.11-.22-.18-.32-.28-.13-.13-.11-.09.04-.15.08-.02.17-.05.24-.09.69-.39,1.34-1.09,1.7-1.79.11-.2.19-.43.07-.64-.1-.17-.37-.15-.6-.12.17-.2.26-.45.36-.7.22-.52.32-1.08.32-1.65,0-.52-.09-1.05-.21-1.55-.08-.35-.2-.89-.46-1.15-.03-.03-.07-.03-.1-.01-.13.07-.15.25-.21.39-.08-.25-.1-.54-.18-.79-.15-.42-.38-.81-.62-1.18-.21-.34-.48-.67-.74-.97-.13-.15-.28-.28-.43-.42-.09-.09-.29-.18-.34-.25-.05-.07-.22-.12-.25,0-.13.5-.39.9-.69,1.31.02-.12.02-.23-.05-.32-.13-.17-.29-.03-.41.07-.38.32-.71.61-1,1.03-.12.17-.21.34-.3.52.05-.11.05-.21.02-.34,0-.03-.04-.05-.07-.04-.24.08-.43.49-.53.77-.03-.36-.11-.72-.19-1.06-.03-.13-.49-1.63-.84-1.16-.07.09-.1.16-.1.28-.01.13-.02.13-.03-.02-.04-.12-.09-.24-.15-.36-.17-.35-.41-.68-.67-.98-.44-.5-1.17-1.09-1.87-1.11-.05,0-.09.03-.12.07-.05.1,0,.2.07.3-.16-.14-.32-.28-.49-.4-.31-.22-.67-.34-1.03-.44-.44-.13-.89-.19-1.33-.28-.11-.02-.23-.06-.36-.07-.13-.05-.26-.08-.36-.05-.29.08-.08.69-.06.86.07.45.15.9.3,1.33-.13-.13-.31-.26-.46-.22-.48.13.23,1.81.33,2.04.02.06.04.11.06.17-.01-.02-.03-.03-.04-.05-.11-.15-.27-.05-.32.08-.11.34.11.82.21,1.14.01.05.03.09.05.14-.34-.25-.75-.43-1.09-.55-.51-.19-1.08-.23-1.62-.22-.15,0-.75.1-.47.37.08.08.17.12.26.18.39.22,0,.02-.12-.01-.38-.11-.81-.09-1.2-.09-.42,0-.84.08-1.24.17-.19.04-.55.14-.65.32-.1.18-.02.32.12.45.2.19.55.25.06.21-.81-.08-1.6.24-2.33.54-.2.08-1.17.5-1.02.81,0,.02.02.03.03.04-.59.22-1.12.6-1.62.98-.03.01-.06.02-.09.04-.04,0-.07.02-.08.05,0,0,0,0,0,0,0,0,0,0-.01,0-.03.03-.03.07-.01.1,0,.21.22.43.32.58.26.37.53.74.84,1.07.31.33.65.66,1.01.93.16.12.32.22.5.31-.01,0-.03,0-.04,0-.02,0-.05.01-.06.04-.11.35.54.93.74,1.17.33.4.67.75,1.08,1.04-.04,0-.08,0-.11,0-.09.01-.14.08-.1.17.22.49.73.98,1.18,1.26.23.15.47.23.74.26-.13-.01-.36,0-.51-.02-.11-.02-.18-.05-.28-.02-.04.01-.07.06-.06.1.07.28.31.45.54.61.44.29.88.58,1.38.76.37.14.73.23,1.11.17-.07.02-.13.05-.17.1-.3.35,1.1.47,1.17.47.24.02.5,0,.75-.05-.16.1-.32.22-.46.34-.53.46-.87,1.16-.94,1.85,0,.07.08.13.14.1.08-.04.15-.08.23-.13-.07.08-.13.15-.18.23-.27.36-.47.78-.62,1.2-.09.24-.28.63-.16.89.12.28.39.16.54-.01.01-.02.03-.04.06-.08-.06.1-.11.21-.14.32-.14.4-.2.78-.26,1.19-.03.17-.06.5.12.61.07.04.13.05.19.03-.15.32-.24.69-.28,1.04.01.11.01.23.02.34.02.25.26.26.47.26Z"/>
            <path class="cls-3" d="M22.33,4.72c.23.25.47.56.66.84.27.39.5.8.7,1.23.14.3.16.65.31.94.03.05.1.09.14.04.09-.08.11-.2.18-.29.02-.03.03-.08.03-.11,0-.1.09.2.08.19.19.52.33,1.02.4,1.57.08.57.08,1.13-.02,1.7-.08.46-.27,1.25-.76,1.41-.09.03-.04.14.03.16.18.06.3.08.49.07.3-.02.17.19.09.37-.17.4-.4.74-.71,1.05-.32.34-.71.63-1.16.76-.2.06-.26.17-.13.35.05.07.14.13.21.17.02.01.38.21.2.27-.1.03-.26.01-.35,0-.39-.05-.76-.21-1.15-.26-.3-.04-.72.06-.91.26-.03-.12-.06-.23-.07-.35-.04-.34.01-.69.09-1.02.13-.52.33-1.01.53-1.51.39-1.03.84-2.03,1.13-3.09.27-.98.27-2.05.12-3.05-.08-.56-.23-1.09-.36-1.64-.02-.09-.05-.22-.09-.35.1.09.2.19.3.29Z"/>
            <path class="cls-17" d="M12,1.97c.32.07.64.11.95.19.35.09.68.2,1,.36.27.14.73.43.9.7.03.04.12.05.12-.02,0-.05.01-.1,0-.14-.02-.07-.04-.14-.06-.21,0,0,0,0,0,0,.44.11.85.37,1.2.65.34.27.63.58.89.94.14.2.24.42.31.66.03.09.02.09.08.16.02.02.07.03.09.01.11-.09.16-.48.33-.17.19.36.28.79.38,1.18.08.33.16.65.21.98-.1.42-.06.84.03,1.27,0,.03.06.05.07,0,.02-.55.14-1.09.31-1.62.06-.21.15-.44.24-.63,0,0-.02.23,0,.32,0,.03.05.06.08.04.1-.06.17-.2.24-.29.19-.26.4-.5.62-.73.19-.21.42-.39.65-.55.01.08.03.16.05.23.02.1,0,.21,0,.31,0,.01.03.03.04,0,.02-.07.05-.15.08-.24,0,0,.02,0,.03,0,.38-.31.71-.71.91-1.16.06.04.12.09.18.14.03.11.04.23.05.31.05.26.1.51.17.77.13.52.18,1.07.24,1.6.12,1.16-.2,2.37-.6,3.44-.35.94-.84,1.86-1.12,2.82-.19.65-.57,1.69-.12,2.33-.24-.16-.48-.33-.73-.48-.29-.34-.61-.71-.88-1.04-.46-.57-.85-1.2-1.24-1.82-.84-1.32-1.62-2.7-2.22-4.15-.57-1.38-1.06-2.79-1.76-4.11-.36-.68-1-1.71-1.82-2.07.04.01.07.02.1.03Z"/>
            <path class="cls-13" d="M2.22,9.36c.07-.02.02-.11-.04-.11-.02,0-.24.02-.18-.02.11-.08.24-.14.36-.2.32-.17.66-.28.98-.43.33-.15.65-.27.99-.38.33-.1.84-.27,1.18-.16.02,0,.03-.02.01-.03-.27-.23-.39-.47,0-.63.26-.11.55-.15.83-.2.64-.13,1.45-.24,2.1-.09.03,0,.05-.03.02-.05-.05-.04-.35-.33-.33-.34.07-.05.21-.05.3-.05.19-.02.38-.01.57,0,.38,0,.76.09,1.12.2.3.09.71.25,1.04.46,0,.01.01.02.02.04.12.07.25.14.37.21-.06-.15-.12-.31-.18-.46-.08-.2-.13-.42-.18-.62-.02-.09-.04-.18-.06-.27,0-.06-.02-.11-.03-.17-.02-.18.07-.13.25.15.02.04.1.04.08-.02-.22-.56-.33-1.17-.42-1.76-.02-.14-.04-.28-.04-.42,0-.16.11-.02.17.03.26.2.6.46.73.76,0,0,.01,0,.01,0-.05-.28-.3-.59-.48-.8-.05-.29-.08-.58-.1-.88-.03-.38-.11-.76-.13-1.13,0,0,0-.01,0-.02,0,0,.02.01.03.01,1.4.39,2.12,1.81,2.66,3.04.57,1.28.98,2.63,1.58,3.9.59,1.27,1.29,2.49,2.05,3.67.39.62.81,1.22,1.28,1.79.1.12.22.24.33.36-.08-.05-.16-.09-.24-.13-.5-.27-.96-.61-1.46-.87-.57-.29-1.13-.58-1.71-.85-.25-.11-.48-.26-.73-.38-.25-.12-.53-.2-.79-.3-.55-.22-1.11-.41-1.68-.6-1.14-.37-2.3-.78-3.48-1.03-.6-.13-1.2-.25-1.81-.35-.56-.09-1.13-.09-1.69-.19-1.19-.21-2.48-.05-3.66.09-.39.05-.77.12-1.16.17-.06,0-.13.01-.21.02.52-.39,1.08-.76,1.71-.92Z"/>
            <path class="cls-17" d="M8.49,26.92c.07-.41.18-.94.45-1.28.04-.05-.04-.12-.08-.08-.13.1-.41.4-.41.04,0-.16.04-.31.05-.47.03-.3.08-.57.16-.86.07-.28.2-.49.32-.75,0-.02-.02-.04-.03-.03-.12.11-.24.22-.39.29-.24.11-.21.06-.17-.14.08-.4.24-.82.43-1.17.2-.38.39-.8.73-1.08.07-.06.11-.1.14-.13.04-.02.08-.05.13-.07.04-.02,0-.08-.04-.07-.08.02-.16.06-.24.11-.07.03-.15.06-.18.08-.15.07-.3.18-.45.25.2-.61.52-1.19.99-1.64.31-.3.7-.53,1.09-.71.23-.11.61-.15.8-.32,0,0,0-.02-.01-.01-.12.08-.3.09-.44.12-.13.03-.26.07-.39.11.19-.14.35-.31.47-.52,0,0,0-.02-.02-.01-.5.46-1.36.64-2.01.63-.29,0-.58-.04-.86-.06-.17-.01-.21,0-.04-.1.13-.08.24-.2.37-.27.02-.01,0-.04-.02-.04-.67.15-1.21-.04-1.82-.3-.27-.11-.51-.28-.75-.44-.22-.14-.53-.29-.7-.51.14-.03.36,0,.47,0,.1-.01.2-.04.29-.08.02,0,.02-.03,0-.04-.06-.05-.11-.06-.18-.08-.26-.05-.52-.31-.72-.48-.29-.25-.6-.56-.85-.88.2,0,.42.06.6.05.06,0,.04-.08,0-.1-.12-.04-.25-.09-.39-.13-.49-.4-.93-.84-1.35-1.32-.21-.24-.43-.47-.61-.72-.12-.16.33.04.38.06.1.05.21.09.32.12.08.03.1-.08.05-.13-.25-.22-.57-.38-.84-.57-.37-.26-.69-.56-1.02-.88-.29-.29-.55-.59-.8-.93-.09-.12-.58-.64-.53-.86.19-.05.45-.06.56-.08.28-.03.55-.09.83-.13.69-.08,1.38-.13,2.07-.13,1.16,0,2.37.13,3.52.32,2.41.39,4.75,1.2,7.04,2.06.55.21,1.06.5,1.59.74.58.26,1.14.56,1.69.87.84.48,1.68.95,2.48,1.49-1.33-.15-2.56.26-3.63,1.08-1.18.9-2.16,2.05-2.91,3.33-.38.65-.78,1.31-1.1,2-.33.7-.61,1.41-1.02,2.06-.4.62-.78,1.26-1.24,1.83-.03.03-.06.07-.09.1-.13.14-.27.28-.41.42-.22.21-.48.4-.74.57-.19.12-.37.28-.58.38,0-.2.05-.46.06-.52Z"/>
            <path class="cls-16" d="M20.31,16.11c.05-.06.12-.14.19-.2-.09-.07-.19-.13-.28-.19-.08,0-.18.02-.2.02-.24.02-.47.07-.71.1-.36.05-.72.16-1.06.3-.77.32-1.45.78-2.06,1.35-.58.53-1.21,1.08-1.66,1.74-.42.6-.78,1.24-1.15,1.87-.38.66-.71,1.32-1.02,2.01-.29.65-.67,1.21-1.05,1.8-.38.59-.86,1.12-1.37,1.6-.12.13-.24.27-.36.39-.16.16-.36.36-.58.53.17-.02.35-.06.53-.09.48-.07.95-.16,1.38-.4.05-.03.1.02.09.07-.06.21-.24.35-.35.53.13-.02.27-.08.38-.11.19-.05.37-.09.55-.15.42-.14.87-.34,1.1-.75.01-.03.05,0,.05.02-.07.21-.17.41-.26.61.16-.04.32-.1.46-.15.29-.09.57-.21.84-.36.44-.24.8-.53,1.06-.96.02-.03.06,0,.06.03-.03.26-.09.5-.15.75.22-.07.54-.32.67-.42.27-.2.48-.45.69-.71.19-.24.34-.5.49-.77.02-.11.03-.23.05-.32.05-.36.12-.71.21-1.04.41-2.79,1.21-5.69,3.49-7.09Z"/>
            <path class="cls-17" d="M19.18,28.85c.15-.29.3-.58.4-.89.22-.68.27-1.38.35-2.08.17-1.43,0-2.89-.14-4.31-.12-1.23-.53-2.47-.22-3.7.16-.61.35-1.17.71-1.7.01-.02.03-.04.04-.06-2.28,1.4-3.08,4.29-3.49,7.09.06-.19.12-.37.2-.57.02-.05.09,0,.08.04-.11.44-.23.88-.3,1.33-.02.1-.05.24-.08.39,0,0,0,0,.01,0,0,0,0,0,0,0,0,0-.01,0-.02.01-.06.31-.11.68,0,.89.06-.11.07-.26.08-.38.01-.16.27-.1.27.04.02.35-.02.72.04,1.07.06.36.19.7.27,1.05.07.32.14.65.29.95.09.19.16-.32.16-.28.01-.08.03-.18.05-.26,0-.04.01-.07.02-.11.02-.13.2-.08.22.03.07.45.12.9.21,1.35.06.29.1.67.21.99.02-.02.04-.04.06-.06.03-.02.06,0,.07.02.23-.26.35-.56.51-.87Z"/>
            <path class="cls-13" d="M18.67,29.87s.02,0,.02,0c.37-.29.53-.79.74-1.2.27-.53.47-1.08.61-1.67.29-1.24.27-2.52.18-3.78-.05-.65-.11-1.3-.18-1.94-.07-.66-.23-1.31-.29-1.97-.06-.68.06-1.3.25-1.96.03-.12.36-1.1.6-1.36,0,0,.01.01.02.01-.01.11.02.23.1.33.31.4.73.72,1.08,1.08.18.19.36.39.52.6.08.11.15.23.23.34-.06-.09.27.4.19.35-.12-.08-.51-.31-.67-.19-.07.06-.06.15,0,.21.26.23.51.4.71.7.31.46.57,1.02.71,1.56.12.45.14.95.12,1.41,0,.05,0,.1,0,.15-.07-.08-.15-.14-.25-.19-.13-.07-.25.04-.2.17.02.05.03.09.07.12.2.18.23.47.27.71.08.43.07.88.03,1.32-.04.38-.16.74-.32,1.08-.04.08-.39.8-.5.77-.04,0-.07,0-.09,0-.04-.11-.05-.27-.06-.32-.01-.09-.17-.14-.19-.02-.05.37.02.74-.04,1.11-.05.39-.24.78-.39,1.14-.06.13-.15.26-.24.38,0,0-.02.02-.02.03,0,0,0,0,0,0-.02-.31-.06-.63-.14-.93-.01-.04-.08-.08-.1-.03-.3.63-.88,1.17-1.49,1.5-.32.17-.65.28-.99.41-.1.04-.21.05-.32.08,0,0,0,0,0,0Z"/>
            <g class="cls-5">
              <path class="cls-12" d="M21.93,28.99c.53-.65.71-1.51.69-2.34,0,.05.04.1.11.12.46.11.82-1.21.88-1.48.06-.31.1-.62.11-.93-.14.46-.34.91-.62,1.3-.14.2-.46.07-.39-.17.07-.28.13-.54.13-.79-.21.78-.44,2.64-.8,3.38,0,.02-.19-.51-.2-.49-.1.19-.16-.45-.21-.61-.43.75-.05,1.51-2.24,2.5-.2.09-.02-.21.08-.39,1.11-1.95,1.33-4.8.89-6.97-.22-1.06-.51-2.28-.17-3.35.52-1.58,1.64-.9,2.39.15.1.04.19.07.29.04.03-.01.06-.04.06-.07.03-.17-.1-.33-.18-.47-.21-.35-.47-.68-.75-.97-.27-.28-.55-.55-.84-.81-.16-.15-.33-.29-.43-.48-.01-.02-.02-.04-.03-.06-.06-.11-.09-.23-.03-.35.04-.09.14-.12.24-.12.34-.21,1.21-.14,1.39-.12.25.03.59.13.84.07.12-.04.24-.15.12-.28-.1-.11-.22-.18-.32-.28-.13-.13-.11-.09.04-.15.08-.02.17-.05.24-.09.69-.39,1.34-1.09,1.7-1.79.11-.2.19-.43.07-.64-.1-.17-.37-.15-.6-.12.17-.2.26-.45.36-.7.22-.52.32-1.08.32-1.65,0-.52-.09-1.05-.21-1.55-.08-.35-.2-.89-.46-1.15-.03-.03-.07-.03-.1-.01-.13.07-.15.25-.21.39-.08-.25-.1-.54-.18-.79-.15-.42-.38-.81-.62-1.18-.21-.33-.47-.66-.73-.95.37.65.71,1.31.81,2.07.12.89.1,1.77.05,2.66.29-.2.58-.55.79-.79.11-.12.33-.05.36.11.1.58.08,1.15-.06,1.7.07.05.1.12.07.23-.19.54-.49,1-.84,1.44.03,0,.06.01.08.02.14.03.19.21.12.32-.45.75-3.11,2.76-2.49.49.37-1.32,1.21-2.35,1.31-3.77.07-1.01.13-2.08-.34-3.01-.06-.11-.11-.22-.17-.33-.03,1.04,0,2.49-.25,3.43-.11.4-.85,1.93-1.2,2.9-.38,1.04-.39,1.46-1.15.19-.54-.9-.9-2.65-.82-3.44.16-1.49.88-2.84,1.84-3.97-.1-.02-.21.07-.3.15-.38.32-.71.61-1,1.03-.12.17-.21.34-.3.52.05-.11.05-.21.02-.34,0-.03-.04-.05-.07-.04-.24.08-.43.49-.53.77-.03-.36-.11-.72-.19-1.06-.02-.09-.28-.94-.55-1.18.13.38.22.8.24,1.27.07,1.26.1,2.49.36,3.74.26,1.27.81,2.29,1.31,3.47.08.18-.12.43-.3.29-1.88-1.45-2.54-3.81-3.58-5.85-1.03-2.02-1.88-4.18-3.78-5.31.82.92,1.42,1.94,1.74,3.22.24.92.85,1.86,1.19,2.75.03.09,1.21,2.57.68,2.16-1.04-.8-3.16-2.07-3.72-3.3-.3-.66-.32-1.37-.54-2.06-.16-.49-.37-.94-.63-1.36-.27.33.33,1.76.42,1.98.02.06.04.11.06.17-.01-.02-.03-.03-.04-.05-.11-.15-.27-.05-.32.08-.11.34.11.82.21,1.14.01.05.03.09.05.14-.34-.25-.75-.43-1.09-.55-.51-.19-1.08-.23-1.62-.22-.06,0-.19.02-.3.05,2.73.42,3.49,1.77,5.17,2.79,1.26.76,3.6,2.32,4.06,3.84.16.55-2.75-1.15-3.01-1.27-1.87-.89-4.49-1.71-6.53-1.88-1.02-.09-2.05-.12-3.08-.06-.93.06-2.06.48-2.96.41,2.85.21,5.67.77,8.42,1.57,1.36.39,2.7.85,4.02,1.35,1.1.41,2.69.8,3.42,1.78.1.14.05.3-.11.36-1.23.46-2.5.76-3.68,1.35-.9.44-1.79.99-2.78,1.22-1.35.31-3.19.55-4.31-.46-.13-.11-.04-.33.12-.36-.33-.17-.67-.32-.99-.5-.19-.1-.1-.42.12-.4.12.02.24.02.37.02-.67-.59-1.51-.96-2.19-1.55-.16-.14.02-.44.22-.36.15.06.3.1.45.12-.95-.92-2.33-1.33-3.34-2.2-.61-.52-1.09-1.1-1.46-1.74-.03.03-.03.07-.01.1,0,.21.22.43.32.58.26.37.53.74.84,1.07.31.33.65.66,1.01.93.16.12.32.22.5.31-.01,0-.03,0-.04,0-.02,0-.05.01-.06.04-.11.35.54.93.74,1.17.33.4.67.75,1.08,1.04-.04,0-.08,0-.11,0-.09.01-.14.08-.1.17.22.49.73.98,1.18,1.26.23.15.47.23.74.26-.13-.01-.36,0-.51-.02-.11-.02-.18-.05-.28-.02-.04.01-.07.06-.06.1.07.28.31.45.54.61.44.29.88.58,1.38.76.37.14.73.23,1.11.17-.07.02-.13.05-.17.1-.3.35,1.1.47,1.17.47.24.02.5,0,.75-.05-.16.1-.32.22-.46.34-.53.46-.87,1.16-.94,1.85,0,.07.08.13.14.1.08-.04.15-.08.23-.13-.07.08-.13.15-.18.23-.27.36-.47.78-.62,1.2-.09.24-.28.63-.16.89.12.28.39.16.54-.01.01-.02.03-.04.06-.08-.06.1-.11.21-.14.32-.14.4-.2.78-.26,1.19-.03.17-.06.5.12.61.07.04.13.05.19.03-.15.32-.24.69-.28,1.04.01.11.01.23.02.34.02.25.26.26.47.26.33,0,.66-.04.98-.09.34-.07.63-.17.91-.33-.12.1-.26.19-.31.34-.02.07.03.13.09.15.21.06.46-.05.66-.11.34-.11.64-.19.95-.36.04-.02.08-.05.13-.08-.01.01-.03.03-.04.04-.07.07.02.2.1.21.59.08,1.3-.31,1.79-.59.27-.16.47-.41.63-.67.06-.1.11-.21.16-.33-.1.25-.13.45-.29.67-.03.04,0,.1.04.12.16.09.35-.03.51-.09.31-.11.57-.3.8-.53.23-.23.42-.54.58-.82.02-.04.04-.07.06-.11.01.15.05.29.12.4.02.04.08.05.12.03,0,0,.01,0,.02-.01.01.32.05.63.14.93.14.46.33.92.53,1.36.06.13.14.47.33.46.06,0,.08-.09.09-.13.04.32.13.64.2.95.06.26.18.58.37.8-.03.07-.03.16.02.24.03.05.1.07.15.06.52-.12,1.02-.29,1.51-.55.33-.17.58-.45.84-.7.26-.26.38-.52.52-.82.02.13.03.26.05.39.02.18-.1.44-.02.61.1.22.32,0,.41-.1ZM8.92,26.89c-.17.11.15-.91.19-1.07.24-1.03,0-2.2.38-3.19.25-.68.68-1.2,1.11-1.75-.12,0-.23.02-.35.04-.14.02-.33-.11-.26-.27.54-1.23,1.92-1.6,2.99-2.34.81-.56,2.86-2.26,3.88-2.31.18,0-.64.48-.9.72-1.42,1.26-2.22,2.52-3.01,4.09-.96,1.92-2.14,4.87-4.03,6.08ZM15.14,24.95c-.15.09-.38-.08-.31-.25.01-.02.02-.04.03-.07-.46.53-.88,1.06-1.53,1.42-.13.07-.34-.03-.32-.2.02-.11.03-.21.03-.32-.46.49-.87,1.02-1.37,1.48-.18.17-.46-.06-.33-.27.1-.17.19-.33.28-.5-.44.34-.91.62-1.46.83-.17.07-.17-.27.02-.42,2.72-2.25,2.44-3.95,4.08-6.65.83-1.37,3.06-3.1,4.28-3.23.53-.06.61.11.46.59-.07.24-.48.63-.57.81-.62,1.16-1.49,2.44-1.8,3.85-.24,1.09-.44,2.31-1.48,2.92ZM18.59,28.66c.02-.44-.1-.78-.11-1.23,0-.44.04-.9.03-1.35-.07.08-.14.17-.22.25-.14.15-.36.01-.36-.16-.02-.36-.03-.72-.02-1.08-.04.03-.08.05-.11.08-.13.08-.27-.02-.31-.14-.38-1.13-.01-3.17.37-4.3.07-.22.99-1.88,1.02-1.19.09,1.82.73,3.55.82,5.38.07,1.37.03,2.67-.7,3.87-.11.18-.41.1-.4-.12Z"/>
            </g>
            <path class="cls-10" d="M16.63,12.11c-1.35-1.19-5.14-4.76-6.99-5.07-.14-.02-.2.16-.08.23.04.02.08.04.11.07-1.27-.29-2.59-.27-3.77.18-.14.05-.1.27.05.26.36-.02.72-.05,1.08-.07-.12.02-.25.05-.37.07-.7.16-1.39.35-2.06.59-.68.24-1.46.42-2.03.88-.13.11-.04.36.14.29.19-.08.38-.16.56-.24-.34.16-.68.31-1.01.47-.03.01-.02.05.01.05,3.72-.64,7.55-1.5,11.94,1.14,1.41.84,2.48,1.22,2.41,1.16Z"/>
            <path class="cls-15" d="M19.23,12.65c-.61-1.17-1.04-2.66-1.2-3.96-.13-1.05.06-2.12-.31-3.13-.03-.08-.13-.05-.14.03-.01.28-.02.56-.03.85-.34-1.35-.97-2.64-2.31-3.17-.06-.02-.11.03-.1.08-.47-.3-.98-.51-1.51-.61-.01,0-.03,0-.04-.01,0,0-.01,0-.02,0-.09-.02-.19-.03-.28-.04-.06,0-.11.08-.04.11.92.45,1.74.92,2.51,1.61.67.59,1.06,1.3,1.39,2.06.25.86.39,1.77.57,2.61.25,1.18.63,2.7,1.42,3.64.04.05.11,0,.08-.05Z"/>
            <path class="cls-10" d="M22.81,24.8c.11-.36.16-.68.09-.92.06.21.12.42.19.63.02.05.1.05.1,0,.07-.71-.07-1.47-.23-2.2-.06-.42-.15-.84-.2-1.24.18.32.33.65.51.97.04.08.18.03.16-.05-.01-.08-.03-.15-.05-.22.02-.01.04-.03.04-.06-.07-1.14-.81-1.92-1.47-2.77-.11-.24-.22-.49-.34-.72-.02-.04-.07,0-.06.03.89,3.34,1.41,6.67-.73,9.68-.02.03.02.08.05.04.48-.49,1.58-2.03,1.94-3.17Z"/>
            <path class="cls-10" d="M4.24,11.93c-.73-.42-1.52-.83-2.39-.75-.17.02-.28.21-.18.36.35.54,1.05.94,1.59,1.25.43.24,1.26.7,1.69.23.37-.41-.07-.8-.71-1.09Z"/>
            <path class="cls-10" d="M6.85,15.07c-.14-.29-.38-.59-.68-.68-.21-.13-.46-.21-.71-.19-.15.01-.21.15-.19.28.12.61.83.96,1.4.94.19,0,.25-.21.17-.35Z"/>
            <path class="cls-10" d="M8.23,16.02s-.04-.06-.06-.09c0,0,0,0,0,0-.03-.06-.08-.09-.14-.09-.05,0-.1,0-.14.04-.1.06-.16.19-.06.29,0,0,.01.02.02.03,0,0,0,0,0,0,.03.02.06.04.08.07.17.13.42-.06.29-.25Z"/>
          </g>
          <g class="cls-6">
            <path class="cls-2" d="M24.41,7.14s-.07-.03-.1-.01c-.13.07-.15.25-.21.39-.08-.25-.1-.54-.18-.79-.15-.42-.38-.81-.62-1.18-.17-.27-.38-.55-.6-.8.19.26.35.54.48.79.8,1.63,1.02,3.39.67,5.16-.17.84-.88,4.2-2.33,2.9-.5-.45.44-1.7.54-2.22.14-.73.44-2.96.47-3.71-.36,1.19-1.64,3.72-2.54,4.5-1.18,1.03-2.43,1.03-3.81.38-1.72-.81-3.18-1.23-5.04-1.67-.98-.23-4.08-.68-4.48-.62,3.27.58,5.61,1.87,6.58,2.26,2.31.95,6.62,1.44,3.55,4.14,3.4-1.49,3.63.67,4.2,1.86.94,1.94.93,5.48-.3,7.2-2.12,2.99-3.99-2.46-4.02-4.39,0-.3,0-.61.03-.93-.75,1.27-1.87,2.35-3.07,3.12-.9.58-2.08,1.27-3.15,1.44-1.04.17-1.38-.56-1.27-1.5.14-1.21.56-2.4,1.35-3.34.92-1.1,2.11-1.92,3.12-2.93-1.64.52-3.37.83-5.08.62-1.47-.19-2.82-.71-4.07-1.46.25.29.56.56.85.74.23.15.47.23.74.26-.13-.01-.36,0-.51-.02-.11-.02-.18-.05-.28-.02-.04.01-.07.06-.06.1.07.28.31.45.54.61.44.29.88.58,1.38.76.37.14.73.23,1.11.17-.07.02-.13.05-.17.1-.3.35,1.1.47,1.17.47.24.02.5,0,.75-.05-.16.1-.32.22-.46.34-.53.46-.87,1.16-.94,1.85,0,.07.08.13.14.1.08-.04.15-.08.23-.13-.07.08-.13.15-.18.23-.27.36-.47.78-.62,1.2-.09.24-.28.63-.16.89.12.28.39.16.54-.01.01-.02.03-.04.06-.08-.06.1-.11.21-.14.32-.14.4-.2.78-.26,1.19-.03.17-.06.5.12.61.07.04.13.05.19.03-.15.32-.24.69-.28,1.04.01.11.01.23.02.34.02.25.26.26.47.26.33,0,.66-.04.98-.09.34-.07.63-.17.91-.33-.12.1-.26.19-.31.34-.02.07.03.13.09.15.21.06.46-.05.66-.11.34-.11.64-.19.95-.36.04-.02.08-.05.13-.08-.01.01-.03.03-.04.04-.07.07.02.2.1.21.59.08,1.3-.31,1.79-.59.27-.16.47-.41.63-.67.06-.1.11-.21.16-.33-.1.25-.13.45-.29.67-.03.04,0,.1.04.12.16.09.35-.03.51-.09.31-.11.57-.3.8-.53.23-.23.42-.54.58-.82.02-.04.04-.07.06-.11.01.15.05.29.12.4.02.04.08.05.12.03,0,0,.01,0,.02-.01.01.32.05.63.14.93.14.46.33.92.53,1.36.06.13.14.47.33.46.06,0,.08-.09.09-.13.04.32.13.64.2.95.06.26.18.58.37.8-.03.07-.03.16.02.24.03.05.1.07.15.06.52-.12,1.02-.29,1.51-.55.33-.17.58-.45.84-.7.26-.26.38-.52.52-.82.02.13.03.26.05.39.02.18-.1.44-.02.61.1.22.32,0,.41-.1.53-.65.71-1.51.69-2.34,0,.05.04.1.11.12.46.11.82-1.21.88-1.48.09-.43.14-.88.11-1.33-.01-.25-.04-.5-.08-.74-.01-.08-.03-.17-.06-.25.11.09.22.13.32.01.23-.27,0-.97-.05-1.27-.11-.65-.39-1.25-.7-1.83-.13-.25-.26-.49-.43-.72-.07-.09-.22-.22-.33-.35.16.07.31.18.48.12.03-.01.06-.04.06-.07.03-.17-.1-.33-.18-.47-.21-.35-.47-.68-.75-.97-.27-.28-.55-.55-.84-.81-.16-.15-.33-.29-.43-.48-.01-.02-.02-.04-.03-.06-.06-.11-.09-.23-.03-.35.04-.09.14-.12.24-.12.34-.21,1.21-.14,1.39-.12.25.03.59.13.84.07.12-.04.24-.15.12-.28-.1-.11-.22-.18-.32-.28-.13-.13-.11-.09.04-.15.08-.02.17-.05.24-.09.69-.39,1.34-1.09,1.7-1.79.11-.2.19-.43.07-.64-.1-.17-.37-.15-.6-.12.17-.2.26-.45.36-.7.22-.52.32-1.08.32-1.65,0-.52-.09-1.05-.21-1.55-.08-.35-.2-.89-.46-1.15Z"/>
          </g>
        </g>
      </g>
    </g>
  </g>
</svg>